
<svg width="375" height="770" viewBox="0 0 375 770" fill="none" xmlns="http://www.w3.org/2000/svg">
<defs>
<linearGradient id="paint0_linear_486_435" x1="-4.78441" y1="314.892" x2="-4.78441" y2="823.979" gradientUnits="userSpaceOnUse">
<stop stop-color="white"/>
<stop offset="1" stop-color="white"/>
</linearGradient>
</defs>
<rect x="352.419" y="645.968" width="90.3545" height="91.7031" rx="45.1773" fill="#9458F2"/>
<rect x="38.8759" y="366.138" width="519.876" height="91.7031" rx="45.8515" fill="#7A77F0"/>
<rect x="-481" y="163.853" width="519.876" height="91.7031" rx="45.8515" fill="#A862FF"/>
<path opacity="0.2" d="M762.049 509.087H774.15C819.425 509.087 855.959 472.066 855.359 426.795L851.314 121.371C850.422 54.0812 795.62 0 728.325 0L178.622 0C149.854 0 126.533 23.3209 126.533 52.0887C126.533 80.8565 149.854 104.177 178.622 104.177H205.424C246.016 104.177 278.922 137.083 278.922 177.675C278.922 218.266 311.828 251.172 352.419 251.172H505.651C538.701 251.172 565.494 277.965 565.494 311.015C565.494 344.065 592.287 370.858 625.337 370.858H629.214C664.406 370.858 692.934 399.386 692.934 434.578V439.972C692.934 478.143 723.878 509.087 762.049 509.087Z" fill="#D693FF"/>
<path opacity="0.2" d="M-275.342 314.892H-287.444C-332.719 314.892 -369.252 351.913 -368.652 397.184L-364.607 702.608C-363.716 769.898 -308.914 823.979 -241.618 823.979L308.085 823.979C336.853 823.979 360.174 800.658 360.174 771.89C360.174 743.123 336.853 719.802 308.085 719.802H281.282C240.691 719.802 207.785 686.896 207.785 646.304C207.785 605.713 174.879 572.807 134.287 572.807H-18.9444C-51.9948 572.807 -78.7874 546.014 -78.7874 512.964C-78.7874 479.914 -105.58 453.121 -138.63 453.121H-142.508C-177.699 453.121 -206.228 424.593 -206.228 389.401V384.007C-206.228 345.836 -237.171 314.892 -275.342 314.892Z" fill="url(#paint0_linear_486_435)"/>
<rect x="-93.2849" y="366.138" width="99.1203" height="91.7031" rx="45.8515" fill="#A57FFF"/>
</svg>
