<svg version="1.1" id="Layer_1" xmlns="http://www.w3.org/2000/svg" x="0" y="0" viewBox="0 0 100 100" style="enable-background:new 0 0 100 100" xml:space="preserve"><style>.st0{fill:#873891}.st1{fill:#3a96d2}</style><path class="st0" d="M13.8 75.9c6.2 2.4 11.8 4.3 18 5.1 5.1.8 10.2 1.1 15.3 0 9.4-1.9 15.6-7.5 18.8-16.4 1.9-5.1 2.7-10.5 2.7-15.9-.2-7.5 5.7-13.7 13.3-13.7s13.7 5.9 13.7 13.4c-.3 12.9-5.1 24.2-14.5 33.1-19.6 18-49.7 15.9-67-4.8 0 0 0-.3-.3-.8z"/><path class="st1" d="M59.8 67.6c-4.3 6.2-9.7 9.7-16.9 10.8s-14.3-.4-21.3-2.5c-3.5-1.1-7-2.7-10.2-4-.5-.3-1.1-.8-1.3-1.3-3.8-7-5.6-14.3-5.6-21.8 0-5.4 2.4-9.7 7.5-12.1 5.1-2.2 9.9-1.6 14.3 1.9 3.5 3 4.8 6.7 4.6 11.3-.5 8.1 2.7 14 9.4 18 6.3 3.7 12.8 3.4 19.5-.3z"/><path class="st0" d="M68.7 6.2c6.7 0 12.4 5.4 12.4 12.4S75.7 31 68.7 31s-12.4-5.4-12.4-12.4c0-6.7 5.4-12.4 12.4-12.4z"/><path class="st1" d="M30.8 31c-6.7 0-12.1-5.4-12.4-12.1 0-6.7 5.4-12.1 12.1-12.1s12.1 5.4 12.1 12.4c.3 6.4-5.1 11.8-11.8 11.8z"/></svg>